<?xml version="1.0" encoding="utf-8"?>
<svg id="master-artboard" viewBox="0 0 1400 980" version="1.0" xmlns="http://www.w3.org/2000/svg" x="0px" y="0px" width="1400px" height="980px" enable-background="new 0 0 1400 980">
<path d="M 18.4 11.2 H 1382.599951 V 967.799975 H 18.4 V 11.2 Z" id="XMLID_175_" fill="#BCBEC0" style="fill-opacity: 0;"/>
<path d="M 1228.200012 490 A 528.200012 322.200012 0 0 1 700 812.200012 A 528.200012 322.200012 0 0 1 171.799988 490 A 528.200012 322.200012 0 0 1 700 167.799988 A 528.200012 322.200012 0 0 1 1228.200012 490 Z" id="XMLID_174_" fill="#A7A9AC" style="fill: rgb(3, 49, 75);"/>
<path id="XMLID_23_" fill="#9E8045" d="M607.1,591.8c0,0-39.8,9-61,55.8s6.5,62.6,17.4,62.3L607.1,591.8z"/>
<path id="XMLID_22_" fill="#B5924E" d="M603.6,595.4c0,0-38.3,10-54.1,57.6c-11.3,33.7,0.4,53.4,10.6,56.6c0,0-37.1-2.4-18.3-56.1&#10;&#9;c18.8-53.8,64-61.6,64-61.6L603.6,595.4z"/>
<path id="XMLID_6_" fill="#B5924E" d="M642.9,674.3c0,0-27.2,58.1-54.8,58.4s-35.9-35.7-29.6-66.8s42.5-87.1,86.2-89&#10;&#9;S642.9,674.3,642.9,674.3z"/>
<path id="XMLID_5_" fill="#CAA358" d="M615.4,613.2c0,0-15.5,73-14.1,106c1.3,33-90.1,2.2-4.4-115.6L615.4,613.2z"/>
<path d="M 939.199982 904 A 231.399994 13 0 0 1 707.799988 917 A 231.399994 13 0 0 1 476.399994 904 A 231.399994 13 0 0 1 707.799988 891 A 231.399994 13 0 0 1 939.199982 904 Z" id="XMLID_114_" fill="#A7A9AC" style="fill: rgb(3, 49, 75);"/>
<path d="M 661.0999755859375 872.9000244140625 L 625.4000244140625 869.4000244140625 L 640.0999755859375 683.7000122070312 L 681.4000244140625 687.7999877929688 Z" id="XMLID_21_" fill="#DBA97F"/>
<path d="M 781.7000122070312 869.0999755859375 L 744.0999755859375 872.5999755859375 L 724.4000244140625 687.4000244140625 L 764.9000244140625 683.5999755859375 Z" id="XMLID_20_" fill="#DBA97F"/>
<path id="XMLID_19_" fill="#252A26" d="M631.9,567.9l-15.6,162.4c0,0,41,23.4,77.2,9l17.3-162.4L631.9,567.9z"/>
<path id="XMLID_18_" fill="#252A26" d="M771.6,568l17.1,164.2c0,0-42.4,19.8-76.8,8l-19.1-163.5L771.6,568z"/>
<path d="M 623.2999877929688 856 L 626.7999877929688 819.7000122070312 L 666.9000244140625 823.5999755859375 L 663.4000244140625 861.7000122070312 Z" id="XMLID_17_" fill="#A95F49"/>
<path id="XMLID_16_" fill="#0C1A26" d="M669.3,904.3H554.6c1.8-4.8,4-9.1,6.5-12.9c30.1-47.1,104.4-32.3,104.4-32.3l2.8,32.3&#10;&#9;L669.3,904.3z"/>
<path id="XMLID_15_" fill="#E6E7E8" d="M669.3,904.3H554.6c1.8-4.8,4-9.1,6.5-12.9h107.2L669.3,904.3z"/>
<path id="XMLID_14_" fill="#E6E7E8" d="M625.9,855.7c0,0,4,3.2,5.3,20.7c0,0-4,5.2-9.1,2c0,0-1.3-13.8-4.8-20.8&#10;&#9;C617.3,857.6,620.3,853.5,625.9,855.7z"/>
<path id="XMLID_13_" fill="#E6E7E8" d="M613.6,858.4c0,0,4,2,5.3,19.5c0,0-1.7,5.3-9.1,2c0,0-1.3-12.6-4.8-19.6&#10;&#9;C605,860.4,608.1,856.2,613.6,858.4z"/>
<path d="M 782.5 857.4000244140625 L 777.7999877929688 819.5999755859375 L 738.5999755859375 823.2999877929688 L 742.4000244140625 863 Z" id="XMLID_12_" fill="#A95F49"/>
<path id="XMLID_11_" fill="#0C1A26" d="M737.9,904.3h114.7c-1.8-4.8-4-9.1-6.5-12.9c-30.1-47.1-104.4-32.3-104.4-32.3l-2.8,32.3&#10;&#9;L737.9,904.3z"/>
<path id="XMLID_10_" fill="#E6E7E8" d="M737.9,904.3h114.7c-1.8-4.8-4-9.1-6.5-12.9H739L737.9,904.3z"/>
<path id="XMLID_9_" fill="#E6E7E8" d="M781.3,855.7c0,0-4,3.2-5.3,20.7c0,0,4,5.2,9.1,2c0,0,1.3-13.8,4.8-20.8&#10;&#9;C790,857.6,786.9,853.5,781.3,855.7z"/>
<path id="XMLID_8_" fill="#E6E7E8" d="M793.6,858.4c0,0-4,2-5.3,19.5c0,0,1.7,5.3,9.1,2c0,0,1.3-12.6,4.8-19.6&#10;&#9;C802.2,860.4,799.1,856.2,793.6,858.4z"/>
<path id="XMLID_7_" fill="#252A26" d="M679.5,686.9c0,0,21,15.3,53-4.3L699.2,631L679.5,686.9z"/>
<path id="XMLID_431_" fill="#234969" d="M626.5,460.9v137.9c0,0,19,7.7,73.2,7.7c54.2,0,75.3-7.7,75.3-7.7l2-138.6&#10;&#9;c0,0-7-59.5-65-61.2C663,397.5,626.5,405,626.5,460.9z"/>
<path id="XMLID_2_" fill="#DBA97F" d="M605.7,311.1L605.7,311.1c-11.5,0-20.9-9.4-20.9-20.9v-24.7c0-11.5,9.4-20.9,20.9-20.9h0&#10;&#9;c11.5,0,20.9,9.4,20.9,20.9v24.7C626.5,301.7,617.1,311.1,605.7,311.1z"/>
<path id="XMLID_1_" fill="#DBA97F" d="M793.9,311.1L793.9,311.1c-11.5,0-20.9-9.4-20.9-20.9v-24.7c0-11.5,9.4-20.9,20.9-20.9h0&#10;&#9;c11.5,0,20.9,9.4,20.9,20.9v24.7C814.7,301.7,805.3,311.1,793.9,311.1z"/>
<path id="XMLID_430_" fill="#EEC19C" d="M718.8,406.8h-38.1c-1,0-1.8-0.8-1.8-1.8v-60.7c0-1,0.8-1.8,1.8-1.8h38.1&#10;&#9;c1,0,1.8,0.8,1.8,1.8V405C720.6,406,719.8,406.8,718.8,406.8z"/>
<path id="XMLID_429_" fill="#DBA97F" d="M699.8,396.3L699.8,396.3c-11.5,0-20.9-9.4-20.9-20.9v-22.6c0-11.5,9.4-20.9,20.9-20.9l0,0&#10;&#9;c11.5,0,20.9,9.4,20.9,20.9v22.6C720.6,386.9,711.2,396.3,699.8,396.3z"/>
<path id="XMLID_428_" fill="#EEC19C" d="M705,384h-13.3c-42.1,0-86-34.4-86-76.5V189.8c0-42.1,34.4-76.5,76.5-76.5h35.2&#10;&#9;c42.1,0,76.5,34.4,76.5,76.5v105.3C793.9,344,753.9,384,705,384z"/>
<path id="XMLID_427_" fill="#EEC19C" d="M678.9,399.4c0,0-13.3,2.1-2.3,16.8c14.6,19.6,25.2,21.2,41.1,6.1c22.9-21.8,3-22.9,3-22.9&#10;&#9;H678.9z"/>
<path id="XMLID_426_" fill="#352312" d="M665.6,287.8L665.6,287.8c-3.9,0-7.1-3.2-7.1-7.1v-9.3c0-3.9,3.2-7.1,7.1-7.1l0,0&#10;&#9;c3.9,0,7.1,3.2,7.1,7.1v9.3C672.6,284.6,669.4,287.8,665.6,287.8z"/>
<path id="XMLID_425_" fill="#352312" d="M736.6,287.8L736.6,287.8c-3.9,0-7.1-3.2-7.1-7.1v-9.3c0-3.9,3.2-7.1,7.1-7.1l0,0&#10;&#9;c3.9,0,7.1,3.2,7.1,7.1v9.3C743.7,284.6,740.5,287.8,736.6,287.8z"/>
<path id="XMLID_424_" fill="#8D3131" d="M676.9,230.4c0,0-27-15.6-51.6,8.9l-5.3-10.7c0,0,18.8-28,56.9-11V230.4z"/>
<path id="XMLID_423_" fill="#8D3131" d="M724.5,229.3c0,0,25.7-17.6,52.1,4.9l4.4-11.1c0,0-20.9-26.5-57.6-6.5L724.5,229.3z"/>
<path id="XMLID_422_" fill="#DBA97F" d="M702.4,297c0,0,18.8,21.1-6.7,25.2C695.7,322.2,731.1,322.2,702.4,297z"/>
<path d="M 650.9 311.100006 A 15.4 9.2 0 0 1 635.5 320.300006 A 15.4 9.2 0 0 1 620.1 311.100006 A 15.4 9.2 0 0 1 635.5 301.900006 A 15.4 9.2 0 0 1 650.9 311.100006 Z" id="XMLID_421_" fill="#EFCAAC"/>
<path d="M 782.600012 310.600006 A 15.4 9.2 0 0 1 767.200012 319.800006 A 15.4 9.2 0 0 1 751.800013 310.600006 A 15.4 9.2 0 0 1 767.200012 301.400006 A 15.4 9.2 0 0 1 782.600012 310.600006 Z" id="XMLID_420_" fill="#EFCAAC"/>
<path id="XMLID_419_" fill="#386B95" d="M667.3,402.1c0,0-33.2,3.7-55.9,33.8c-18.5,24.6-29.8,92.4-29.8,92.4l44.9,4.4l11.5-65.3&#10;&#9;C638,467.4,641.9,421,667.3,402.1z"/>
<path id="XMLID_418_" fill="#386B95" d="M730.5,402.1c0,0,44.2,3,63.2,35.8c17.2,29.6,22.7,81.1,22.7,81.1L777,530.5l-15.4-63.1&#10;&#9;C761.6,467.4,760.5,422,730.5,402.1z"/>
<path id="XMLID_417_" fill="#754C29" d="M713.6,353.1c0,0-11.6,11.5-23.7,0C689.9,353.1,694.6,357.7,713.6,353.1z"/>
<g id="XMLID_781_">
	<path d="M 612.5999755859375 261.70001220703125 L 612.5999755859375 282.8999938964844 L 620.5 300.8999938964844 L 632 309.6000061035156 L 650 313.20001220703125 L 669.4000244140625 310.29998779296875 L 681.7000122070312 300.8999938964844 L 689.9000244140625 279.3999938964844 L 689.9000244140625 265.29998779296875 L 683.7999877929688 259.20001220703125 L 658.2999877929688 253.5 L 638.9000244140625 253.5 Z" id="XMLID_416_" opacity="0.3" fill="#FFFFFF"/>
	<path d="M 791 261.70001220703125 L 791 282.8999938964844 L 783.0999755859375 300.8999938964844 L 771.5999755859375 309.6000061035156 L 753.5999755859375 313.20001220703125 L 734.2000122070312 310.29998779296875 L 721.9000244140625 300.8999938964844 L 713.7000122070312 279.3999938964844 L 713.7000122070312 265.29998779296875 L 719.7999877929688 259.20001220703125 L 745.2999877929688 253.5 L 764.7000122070312 253.5 Z" id="XMLID_415_" opacity="0.3" fill="#FFFFFF"/>
	<path id="XMLID_782_" fill="#21170E" d="M799.4,260.6c-0.5-6.8-12.7-6.3-12.7-6.3c-41.6-14.2-74.9,6.3-74.9,6.3&#10;&#9;&#9;c-1.1,0.4-2,0.9-2.9,1.4c-1.8,0.4-4,0.8-6.5,0.8c-5.9,0-10.5-2.2-10.5-2.2s-33.3-20.5-74.9-6.3c0,0-12.2-0.5-12.7,6.3&#10;&#9;&#9;c-0.5,6.8,3.7,4.2,5.2,15.7c1.6,11.5,4,38.9,41,40c40.3,1.2,43.5-34.1,43.5-34.1s2.5-6.6,5.6-6.9h4.6c3.1,0.3,5.6,6.9,5.6,6.9&#10;&#9;&#9;s3.3,35.3,43.5,34.1c37-1.1,39.4-28.5,40.9-40C795.7,264.8,799.9,267.5,799.4,260.6z M679.5,298.9c-8.5,11.8-43,18-55.1,2&#10;&#9;&#9;c-11.4-15.1-10.1-35.8-6.1-38.2c28.6-16.5,65.7-0.9,68.4,3.1C689.3,269.9,688.2,286.8,679.5,298.9z M779.2,300.9&#10;&#9;&#9;c-12.1,16-46.6,9.9-55.1-2c-8.7-12.1-9.8-29-7.2-33c2.6-4.1,39.8-19.7,68.4-3.1C789.2,265.1,790.6,285.8,779.2,300.9z"/>
</g>
<path id="XMLID_32_" fill="#A43939" d="M814.7,198c8.3,55.4-26.7,72.5-26.7,72.5c15.9-28.8-26.3-67.8-26.3-67.8&#10;&#9;c13.6,26.8-9.3,43.8-9.3,43.8s13.8-79.6-110.4-66c-40.9,28.5-36.2,89.9-36.2,89.9c-46.7-37.1-22.2-104.9-22.2-104.9h-16&#10;&#9;c5.3-9.8,16.2-6.9,16.8-6.8c-14.2-12,2.2-24,2.2-24c-5,10,0,16.4,0,16.4s5.6-10.3,17.6-22.4h0c0,0,0,0,0,0&#10;&#9;c19.4-19.4,55.3-43.2,111.4-35.8C835.7,108.8,828,212.1,828,212.1C817.6,200.7,814.7,198,814.7,198z"/>
<path id="XMLID_28_" fill="#A43939" d="M752.3,246.6c-15.7-61.6-110.4-66-110.4-66C766.2,167,752.3,246.6,752.3,246.6z"/>
<path id="XMLID_26_" fill="#892D2D" d="M605.7,270.6c-46.7-37.1-22.2-104.9-22.2-104.9h-16c5.3-9.8,16.2-6.9,16.8-6.8&#10;&#9;c-14.2-12,2.2-24,2.2-24c-5,10,0,16.4,0,16.4s5.6-10.3,17.6-22.4h0C563.9,224,605.7,270.6,605.7,270.6z"/>
<path id="XMLID_24_" fill="#892D2D" d="M752.3,246.6c-15.7-61.6-110.4-66-110.4-66C751.9,158.3,752.3,246.6,752.3,246.6z"/>
<path id="XMLID_4_" fill="#892D2D" d="M788,270.6c0,0,18.7-10.7,5.9-37.1s-32.2-30.7-32.2-30.7S801.6,244.2,788,270.6z"/>
<path id="XMLID_30_" fill="#C14445" d="M828,212.1c0,0-13.7-72.7-84.3-98.9c-69.8-25.9-137.9,14.6-139.5,15.6&#10;&#9;c19.4-19.4,55.3-43.2,111.4-35.8C835.7,108.8,828,212.1,828,212.1z"/>
<path id="XMLID_3_" fill="#DDB260" d="M725.2,399.4c0,0-83.2,142.3-128.4,205.4l18,11c0,0,116.9-177.2,128.8-212.5&#10;&#9;C743.7,403.3,732.8,398.9,725.2,399.4z"/>
<path id="XMLID_31_" fill="#503212" d="M695.6,490c0,0,5.2,4.5,10.4,0v4c0,0-4.4,5.5-10.4,0V490z"/>
<g id="XMLID_25_">
	<path id="XMLID_36_" fill="#E6E7E8" d="M698,462c0,0-32.9-44.2-115.2-17.6l-5.1,15.7L698.5,476l121.5-9.5l-5.6-23.2&#10;&#9;&#9;C814.4,443.3,750.5,413.5,698,462z"/>
	<path id="XMLID_38_" fill="#EEC19C" d="M807,509.5c0,0,10.5,4.9,0,10.5C796.5,525.5,797,508.5,807,509.5z"/>
	<path id="XMLID_33_" fill="#503212" d="M693.6,465c0,0-33.6-38.3-119.9-9.7v4.3l119.9,9.4V465z"/>
	<path id="XMLID_42_" fill="#EEC19C" d="M589,509.5c0,0-10.5,4.9,0,10.5C599.5,525.5,599,508.5,589,509.5z"/>
	<path id="XMLID_34_" fill="#503212" d="M704,465c0,0,33.6-38.3,119.9-9.7v4.3L704,469V465z"/>
	<path id="XMLID_27_" fill="#754C29" d="M613.6,590.8l-39.9-131.2c0,0,70.7-30,119.9,9.4l4.2,129.4&#10;&#9;&#9;C697.8,598.3,648.1,584.2,613.6,590.8z"/>
	<path id="XMLID_29_" fill="#754C29" d="M783.9,590.8l39.9-131.2c0,0-70.7-30-119.9,9.4l-4.2,129.4&#10;&#9;&#9;C699.8,598.3,749.4,584.2,783.9,590.8z"/>
	<path id="XMLID_35_" fill="#8C5C33" d="M697.8,598.3c0,0,0.1,3,2,0L704,469c0,0-4.4,4.4-10.4,0L697.8,598.3z"/>
	<path id="XMLID_37_" fill="#EEC19C" d="M812.7,526c0,0-15.3-13-23.8-5c-8.5,8,18,16.5,18,16.5S818.1,538,812.7,526z"/>
	<path id="XMLID_39_" fill="#EEC19C" d="M807,537.5c0,0-15.9-7.5-19.7,0c0,0-1.6,0.9-0.7,5.5c0,0-5.7,13.4-0.5,18.5&#10;&#9;&#9;c0,0,10.9,7.5,20.9-5S807,537.5,807,537.5z"/>
	<path id="XMLID_41_" fill="#EEC19C" d="M583.3,526c0,0,15.3-13,23.8-5s-18,16.5-18,16.5S577.9,538,583.3,526z"/>
	<path id="XMLID_40_" fill="#EEC19C" d="M589,537.5c0,0,15.9-7.5,19.7,0c0,0,1.6,0.9,0.7,5.5c0,0,5.7,13.4,0.5,18.5&#10;&#9;&#9;c0,0-10.9,7.5-20.9-5S589,537.5,589,537.5z"/>
</g>
<path d="M 189.80307006835938 63.69803237915039 L 100.52516174316406 34.68271255493164" style="fill: rgb(3, 49, 75); fill-opacity: 1; stroke: rgb(0, 0, 0); stroke-opacity: 1; stroke-width: 0; paint-order: fill;"/><path d="M 100.52516174316406 100.52516174316406 L 100.52516174316406 100.52516174316406" style="fill: rgb(3, 49, 75); fill-opacity: 1; stroke: rgb(0, 0, 0); stroke-opacity: 1; stroke-width: 0; paint-order: fill;"/></svg>