<?xml version="1.0" encoding="utf-8"?>
<svg id="master-artboard" viewBox="0 0 1400 980" version="1.0" xmlns="http://www.w3.org/2000/svg" x="0px" y="0px" width="1400px" height="980px" enable-background="new 0 0 1400 980">
<path d="M 18.4 11.2 H 1382.599951 V 967.799975 H 18.4 V 11.2 Z" id="XMLID_175_" fill="#BCBEC0" style="fill-opacity: 0;"/>
<path d="M 1228.200012 490 A 528.200012 322.200012 0 0 1 700 812.200012 A 528.200012 322.200012 0 0 1 171.799988 490 A 528.200012 322.200012 0 0 1 700 167.799988 A 528.200012 322.200012 0 0 1 1228.200012 490 Z" id="XMLID_174_" fill="#A7A9AC" style="fill: rgb(3, 49, 75);"/>
<path d="M 939.199982 904 A 231.399994 13 0 0 1 707.799988 917 A 231.399994 13 0 0 1 476.399994 904 A 231.399994 13 0 0 1 707.799988 891 A 231.399994 13 0 0 1 939.199982 904 Z" id="XMLID_114_" fill="#A7A9AC" style="fill: rgb(3, 49, 75);"/>
<g id="XMLID_13_">
	<path id="XMLID_347_" fill="#573926" d="M644.8,174c-16.5-2.5-23.7,4-28.7,16.5c-6.9,17-9.8,44.9-26.8,75.3&#10;&#9;&#9;c-28.9,51.7-83.2,40.7-85.4,40.2c-0.1,0-0.1,0-0.1,0c64-24,38-103,70-144s69.2-10,69.2-10L644.8,174z" style="fill: rgb(52, 94, 12);"/>
	<path id="XMLID_345_" fill="#422917" d="M616.1,190.5c-6.9,17-9.8,44.9-26.8,75.3c-28.9,51.7-83.2,40.7-85.4,40.2&#10;&#9;&#9;c2.1,0.2,50.4,3.5,70.4-40.8C588.2,234.5,581.7,195.1,616.1,190.5z" style="fill: rgb(36, 65, 8);"/>
	<path id="XMLID_221_" fill="#5F3F2B" d="M636.5,292.4L625.9,280c0,0-18.1-20-16.1-68s30.6-87.6,80.3-102.5&#10;&#9;&#9;c55.3-16.5,124.9,8.6,134,60.9L636.5,292.4z" style="fill: rgb(52, 94, 12);"/>
	<path id="XMLID_341_" fill="#462C1A" d="M633,272.8c0,0-35.4-86.5,29.2-151.2c0,0-90.9,46.8-38.9,159.3L633,272.8z" style="fill: rgb(36, 65, 8);"/>
	<path d="M 716.7999877929688 859.2999877929688 L 717.0999755859375 823.7000122070312 L 693.0999755859375 822 L 697.0999755859375 860.7999877929688 Z" id="XMLID_263_" fill="#EEC19C"/>
	<path id="XMLID_262_" fill="#813342" d="M689.8,904h111.8c-1.8-4.6-3.9-8.8-6.3-12.6c-29.3-45.9-101.7-31.5-101.7-31.5l-2.7,31.5&#10;&#9;&#9;L689.8,904z"/>
	<path id="XMLID_261_" fill="#D38792" d="M689.8,904h111.8c-1.8-4.6-3.9-8.8-6.3-12.6H690.8L689.8,904z"/>
	<path id="XMLID_260_" fill="#D38792" d="M732.1,856.6c0,0-3.9,3.2-5.2,20.2c0,0,3.9,5.1,8.9,1.9c0,0,1.2-13.5,4.7-20.2&#10;&#9;&#9;C740.5,858.5,737.5,854.5,732.1,856.6z"/>
	<path id="XMLID_259_" fill="#D38792" d="M748.6,860.1c0,0-3.9,2-5.2,19c0,0,1.6,5.2,8.9,1.9c0,0,1.2-12.3,4.7-19.1&#10;&#9;&#9;C756.9,862,754,858,748.6,860.1z"/>
	<path d="M 515.7000122070312 709.2999877929688 L 547.5999755859375 725.2000122070312 L 559.5999755859375 704.4000244140625 L 523 691 Z" id="XMLID_258_" fill="#EEC19C"/>
	<path id="XMLID_257_" fill="#813342" d="M487.3,665.5L438.5,766c4.9,0.4,9.6,0.4,14.1-0.2c54.1-6.3,72.8-77.7,72.8-77.7L498.2,672&#10;&#9;&#9;L487.3,665.5z"/>
	<path id="XMLID_256_" fill="#D38792" d="M487.3,665.5L438.5,766c4.9,0.4,9.6,0.4,14.1-0.2l45.6-93.9L487.3,665.5z"/>
	<path id="XMLID_255_" fill="#D38792" d="M511.4,724.3c0,0-1.1-4.9-15.9-13.5c0,0-6.3,1.3-5.6,7.1c0,0,11.6,7,16.2,13.1&#10;&#9;&#9;C506,731,511,730.1,511.4,724.3z"/>
	<path id="XMLID_254_" fill="#D38792" d="M501.1,737.6c0,0-0.1-4.4-14.8-13c0,0-5.4-0.8-5.6,7.1c0,0,10.5,6.5,15.1,12.5&#10;&#9;&#9;C495.7,744.3,500.6,743.3,501.1,737.6z"/>
	<path id="XMLID_252_" fill="#252A26" d="M725.1,599.1l-4.6,243c0,0,9.7,9.4-26.4,6.9l-33-210.7&#10;&#9;&#9;C661.1,638.4,711.3,631.8,725.1,599.1z"/>
	<path id="XMLID_251_" fill="#252A26" d="M595.9,608.3c0,0,17.6,24.4,59.5,32.6c0,0,19.1,110.7-12.3,120.7&#10;&#9;&#9;C611.6,771.6,605.6,761.3,595.9,608.3z"/>
	<path id="XMLID_250_" fill="#252A26" d="M627.7,714.8l-96.1-27c0,0-7,11.3-10.1,32.4c0,0,81.1,40.8,106.2,44V714.8z"/>
	<path id="XMLID_249_" fill="#E9BBBD" d="M626.2,424.6c0,0-22.5,127.3-78.9,204.3c0,0,97.7,70.5,187.2,39.9l15.7-204.4&#10;&#9;&#9;c0,0,18.4-35.1-28.4-50.5c-35.1-11.6-39.7-12.4-39.7-12.4S628.8,393.2,626.2,424.6z"/>
	<path id="XMLID_247_" fill="#EEC19C" d="M718.3,418.8l-35-11.5c-0.9-0.3-1.4-1.3-1.1-2.3l18.4-55.8c0.3-0.9,1.3-1.4,2.3-1.1&#10;&#9;&#9;l35,11.5c0.9,0.3,1.4,1.3,1.1,2.3l-18.4,55.8C720.2,418.6,719.2,419.1,718.3,418.8z"/>
	<path id="XMLID_202_" fill="#DBA97F" d="M803.9,326.1L803.9,326.1c-11.1,0-20.2-9.1-20.2-20.2V282c0-11.1,9.1-20.2,20.2-20.2h0&#10;&#9;&#9;c11.1,0,20.2,9.1,20.2,20.2v23.9C824,317,815,326.1,803.9,326.1z"/>
	<path id="XMLID_246_" fill="#DBA97F" d="M704,403.3L704,403.3c-10.6-3.5-16.4-15-12.9-25.5l6.9-20.8c3.5-10.6,15-16.4,25.5-12.9h0&#10;&#9;&#9;c10.6,3.5,16.4,15,12.9,25.5l-6.9,20.8C726,401,714.5,406.8,704,403.3z"/>
	<path id="XMLID_245_" fill="#EEC19C" d="M748.2,396.7h-16.1c-40.7,0-95.3-33.3-95.3-74.1V208.7c0-40.7,33.3-74.1,74.1-74.1h34&#10;&#9;&#9;c40.7,0,74.1,33.3,74.1,74.1v101.9C819.1,358,795.5,396.7,748.2,396.7z"/>
	<path id="XMLID_244_" fill="#352312" d="M713.6,297.8L713.6,297.8c-3.8,0-6.8-3.1-6.8-6.8v-9c0-3.8,3.1-6.8,6.8-6.8l0,0&#10;&#9;&#9;c3.8,0,6.8,3.1,6.8,6.8v9C720.4,294.7,717.3,297.8,713.6,297.8z"/>
	<path id="XMLID_243_" fill="#352312" d="M786,297.8L786,297.8c-3.8,0-6.8-3.1-6.8-6.8v-9c0-3.8,3.1-6.8,6.8-6.8l0,0&#10;&#9;&#9;c3.8,0,6.8,3.1,6.8,6.8v9C792.9,294.7,789.8,297.8,786,297.8z"/>
	<path id="XMLID_242_" fill="#DBA97F" d="M755.2,310.5c0,0,14.2,18.3-5.1,21.9C750.1,332.4,777,332.4,755.2,310.5z"/>
	<path d="M 688.500012 324.700012 A 4.3 3.3 0 0 1 684.200012 328.000012 A 4.3 3.3 0 0 1 679.900012 324.700012 A 4.3 3.3 0 0 1 684.200012 321.400012 A 4.3 3.3 0 0 1 688.500012 324.700012 Z" id="XMLID_241_" fill="#DBA97F"/>
	<path d="M 699.099976 323.5 A 2.5 2 0 0 1 696.599976 325.5 A 2.5 2 0 0 1 694.099976 323.5 A 2.5 2 0 0 1 696.599976 321.5 A 2.5 2 0 0 1 699.099976 323.5 Z" id="XMLID_240_" fill="#DBA97F"/>
	<path d="M 807.200012 323 A 2.5 2 0 0 1 804.700012 325 A 2.5 2 0 0 1 802.200012 323 A 2.5 2 0 0 1 804.700012 321 A 2.5 2 0 0 1 807.200012 323 Z" id="XMLID_239_" fill="#DBA97F"/>
	<path id="XMLID_238_" fill="#EEC19C" d="M691.4,404.2c0,0-11.8-4.3-14.3,3.2c-2.5,7.5,8.9,44.7,38.3,41.5&#10;&#9;&#9;C740.1,446.3,735.3,405.7,691.4,404.2z"/>
	<path id="XMLID_237_" fill="#5F3F2B" d="M725.4,236.6c0,0-20.9-17.3-48.5,0C676.9,236.6,701,208.4,725.4,236.6z"/>
	<path id="XMLID_236_" fill="#5F3F2B" d="M817.7,236.6c0,0-16.9-17.3-39.4,0C778.3,236.6,797.9,208.4,817.7,236.6z"/>
	<g id="XMLID_122_">
		<path id="XMLID_235_" fill="#352312" d="M759.3,351.7c-3.2,4.3-6.3,7.5-9.2,9.7c-11.2,8.6-19.7,2.7-25-4.1&#10;&#9;&#9;&#9;c-4.2-5.3-6.4-11.3-6.4-11.3C732.7,352,759.3,351.7,759.3,351.7z"/>
		<path id="XMLID_234_" fill="#BE1E2D" d="M750.1,361.4c-11.2,8.6-19.7,2.7-25-4.1c3.4-3.9,8.3-6.1,13.3-5.4&#10;&#9;&#9;&#9;C743.8,352.7,748,356.4,750.1,361.4z"/>
		<path id="XMLID_233_" fill="#FFFFFF" d="M718.5,345.8c0,0,8.1,3.9,41,5.7l-3,3.9c0,0-25.4,2.2-35.9-5.3&#10;&#9;&#9;&#9;C720.6,350.1,719.1,347.7,718.5,345.8z"/>
	</g>
	<path id="XMLID_201_" fill="#EEC19C" d="M633,322.2L633,322.2c-9.7,0-17.7-8-17.7-17.7v-21c0-9.7,8-17.7,17.7-17.7h0&#10;&#9;&#9;c9.7,0,17.7,8,17.7,17.7v21C650.7,314.2,642.8,322.2,633,322.2z"/>
	<path id="XMLID_231_" fill="#DBA97F" d="M641.8,309.5c0,0,6.1-29.7-8.5-34.3c0,0,6.6,9.8,3.2,17.2c0,0-5.3,0.4-5.5,9.8&#10;&#9;&#9;C630.7,311.5,639.2,313.2,641.8,309.5z"/>
	<path id="XMLID_222_" fill="#A8684E" d="M650.7,343C650.7,342.9,650.7,342.9,650.7,343c0,0,0,0.1,0,0.2&#10;&#9;&#9;C650.7,343.1,650.7,343.1,650.7,343z"/>
	<path d="M 711.700024 321.100006 A 1.8 1.1 0 0 1 709.900024 322.200006 A 1.8 1.1 0 0 1 708.100024 321.100006 A 1.8 1.1 0 0 1 709.900024 320.000006 A 1.8 1.1 0 0 1 711.700024 321.100006 Z" id="XMLID_219_" fill="#DBA97F"/>
	<path d="M 710.5 326.5 A 1.5 1 0 0 1 709 327.5 A 1.5 1 0 0 1 707.5 326.5 A 1.5 1 0 0 1 709 325.5 A 1.5 1 0 0 1 710.5 326.5 Z" id="XMLID_218_" fill="#DBA97F"/>
	<path d="M 720.5 322.600006 A 1 1 0 0 1 719.5 323.600006 A 1 1 0 0 1 718.5 322.600006 A 1 1 0 0 1 719.5 321.600006 A 1 1 0 0 1 720.5 322.600006 Z" id="XMLID_217_" fill="#DBA97F"/>
	<path d="M 796.000012 326.799988 A 1.8 1.3 0 0 1 794.200012 328.099988 A 1.8 1.3 0 0 1 792.400012 326.799988 A 1.8 1.3 0 0 1 794.200012 325.499988 A 1.8 1.3 0 0 1 796.000012 326.799988 Z" id="XMLID_216_" fill="#DBA97F"/>
	<path d="M 791.699988 321.299988 A 0.9 0.7 0 0 1 790.799988 321.999988 A 0.9 0.7 0 0 1 789.899988 321.299988 A 0.9 0.7 0 0 1 790.799988 320.599988 A 0.9 0.7 0 0 1 791.699988 321.299988 Z" id="XMLID_215_" fill="#DBA97F"/>
	<g id="XMLID_368_">
		<path d="M 590.9000244140625 556.4000244140625 L 609.5 678.2999877929688 L 793.2999877929688 650.5 L 769.9000244140625 527.2000122070312 Z" id="XMLID_371_" fill="#5D7A79"/>
		<path d="M 769.9000244140625 527.2000122070312 L 590.9000244140625 556.4000244140625 L 584.2999877929688 553.5 L 765.0999755859375 524.0999755859375 Z" id="XMLID_370_" fill="#798D8C"/>
		<path d="M 609.5 678.2999877929688 L 604.0999755859375 675.7999877929688 L 584.2999877929688 553.5 L 590.9000244140625 556.4000244140625 Z" id="XMLID_369_" fill="#436164"/>
	</g>
	<g id="XMLID_253_">
		<path d="M 595.9000244140625 565.2000122070312 L 618.7999877929688 686.2999877929688 L 801.4000244140625 652.2000122070312 L 773.7999877929688 529.7999877929688 Z" id="XMLID_214_" fill="#A9A262" style="fill: rgb(255, 244, 148);"/>
		<path d="M 773.7999877929688 529.7999877929688 L 595.9000244140625 565.2000122070312 L 589.2000122070312 562.4000244140625 L 768.7999877929688 526.7999877929688 Z" id="XMLID_210_" fill="#CCBA73"/>
		<path d="M 618.7999877929688 686.2999877929688 L 613.2999877929688 684 L 589.2000122070312 562.4000244140625 L 595.9000244140625 565.2000122070312 Z" id="XMLID_205_" fill="#808052"/>
	<path d="M 200.13023376464844 675.4976806640625" style="fill: rgb(255, 244, 148); fill-opacity: 1; stroke: rgb(0, 0, 0); stroke-opacity: 1; stroke-width: 0; paint-order: fill;"/></g>
	<path d="M 784.200012 321.200012 A 2.5 1.8 0 0 1 781.700012 323.000012 A 2.5 1.8 0 0 1 779.200012 321.200012 A 2.5 1.8 0 0 1 781.700012 319.400012 A 2.5 1.8 0 0 1 784.200012 321.200012 Z" id="XMLID_213_" fill="#DBA97F"/>
	<path d="M 791.699988 329.700012 A 1.4 0.9 0 0 1 790.299988 330.600012 A 1.4 0.9 0 0 1 788.899988 329.700012 A 1.4 0.9 0 0 1 790.299988 328.800012 A 1.4 0.9 0 0 1 791.699988 329.700012 Z" id="XMLID_212_" fill="#DBA97F"/>
	<path id="XMLID_211_" fill="#EEC19C" d="M690.9,599.1l6.3,21.3c0,0,14.3,5.8,22.8,27.2c8.5,21.4-8.2,11.4-14.6,3.2&#10;&#9;&#9;c0,0,9.4,22.6,1.2,26.7c0,0-13.2,8.2-18.9,3.1c0,0-11,5.6-16.3,0.3c0,0-9.1,7.6-14.4-1.5l9.2-1.8c0,0-12.6-41.9,9-56l-4.4-19.5&#10;&#9;&#9;L690.9,599.1z"/>
	<path d="M 807.200012 330.600006 A 2.5 1.8 0 0 1 804.700012 332.400006 A 2.5 1.8 0 0 1 802.200012 330.600006 A 2.5 1.8 0 0 1 804.700012 328.800006 A 2.5 1.8 0 0 1 807.200012 330.600006 Z" id="XMLID_209_" fill="#DBA97F"/>
	<path id="XMLID_208_" fill="#B14A5D" d="M641,405.1c22.5-5.9,26.1,14.5,43.3,107.8c15.7,85.3,14.1,96,14.1,96l-32.6,9.9&#10;&#9;&#9;c0,0-10.4-50.6-24.7-103.4C625.7,458,616.7,411.4,641,405.1z"/>
	<path id="XMLID_207_" fill="#EEC19C" d="M724.6,606l-2.2,11.8c0,0-19,29.7-12.2,41c6.8,11.3,14.1-17.1,14.1-17.1l3.7,24.5l-6.9,1.3&#10;&#9;&#9;c0,0,5,11.4,16.4,3.1c0,0,10.9,4.1,16.1-3.1c0,0,12.4-0.2,5.3-22.8c-7.1-22.6-16.5-25.8-16.5-25.8l1.2-12.8H724.6z"/>
	<path id="XMLID_206_" fill="#B14A5D" d="M736.2,420.4c0,0,30.4,9.2,24.1,66.1c-5.4,49.8-12.3,124.4-12.3,124.4l-29.8-4.1&#10;&#9;&#9;L736.2,420.4z"/>
	<path id="XMLID_204_" fill="#B14A5D" d="M683.2,401.8c0,0-13.6,22.8,20.3,46.2l-23.6,19C679.9,467,660,402.8,683.2,401.8z"/>
	<path id="XMLID_203_" fill="#B14A5D" d="M721.7,413.9c0,0,17.2,34.2-18.3,34.1c0,0,11.6,12.7,14.7,26.2&#10;&#9;&#9;C718.2,474.2,751.4,434.9,721.7,413.9z"/>
	<path id="XMLID_220_" fill="#5F3F2B" d="M792.4,172.7c0,0-16,81.7-99.3,102.5c0,0,17.3-16.4,16.8-33.2c0,0-9.2,27.3-47.6,41.1&#10;&#9;&#9;c0,0-13,42.1-5.2,90.6c0,0-24.8-23.1-24-107.9c0,0-16.8-74.5,17.7-114.8c43.3-50.5,137.5-47.4,156.5-14.2c0,0,52.4,43.6,14.9,142.9&#10;&#9;&#9;C822.2,279.7,783,236.4,792.4,172.7z" style="fill: rgb(52, 94, 12);"/>
	<path id="XMLID_224_" fill="#6F4B35" d="M803.9,144c13.9,16,30.4,46.5,18.4,99c0,0-0.6-69.5-30.5-91.8c0,0-4.1,53.4-46.4,87.2&#10;&#9;&#9;c0,0,40.9-54,27.9-114.5C773.3,124,790,128,803.9,144z" style="fill: rgb(36, 65, 8);"/>
	<path id="XMLID_223_" fill="#513522" d="M657,373.7c0,0-36.3-62.4,0-175.3c0,0-25.5,29.6-26.1,82.6S648.3,366,657,373.7z" style="fill: rgb(36, 65, 8);"/>
	<path id="XMLID_248_" fill="#513522" d="M693.1,275.2c0,0,43.2-17.2,15.9-71.2C709,204,717.7,252.8,693.1,275.2z" style="fill: rgb(36, 65, 8);"/>
	<g id="XMLID_360_">
		<path d="M 677.5999755859375 265.70001220703125 L 676 286.20001220703125 L 681.4000244140625 304 L 690.5 312.79998779296875 L 705.5999755859375 316.8999938964844 L 722.4000244140625 314.70001220703125 L 733.5 306 L 742.2000122070312 285.3999938964844 L 743.2999877929688 271.70001220703125 L 738.5 265.6000061035156 L 717.2000122070312 259.20001220703125 L 700.5999755859375 258.5 Z" id="XMLID_366_" opacity="0.3" fill="#FFFFFF"/>
		<path d="M 829.7999877929688 271.5 L 828.2000122070312 292.1000061035156 L 820.0999755859375 309.29998779296875 L 809.5999755859375 317.29998779296875 L 794 320.29998779296875 L 777.5999755859375 316.79998779296875 L 767.9000244140625 307.29998779296875 L 762.5 286.20001220703125 L 763.5 272.5 L 769.2000122070312 266.79998779296875 L 791.4000244140625 262 L 808 262.6000061035156 Z" id="XMLID_365_" opacity="0.3" fill="#FFFFFF"/>
		<path id="XMLID_361_" fill="#21170E" d="M837,270.7c0.1-6.6-10.4-6.5-10.4-6.5c-34.4-15.1-64.4,3.7-64.4,3.7&#10;&#9;&#9;&#9;c-1,0.4-1.8,0.8-2.6,1.2c-1.6,0.4-3.5,0.7-5.6,0.6c-5-0.2-8.8-2.5-8.8-2.5s-26.9-21-63.4-8.6c0,0-10.4-0.9-11.3,5.7&#10;&#9;&#9;&#9;c-1,6.6,2.8,4.2,3.3,15.5c0.5,11.3,0.4,37.9,31.9,40.2c34.3,2.5,39.7-31.7,39.7-31.7s2.6-6.3,5.3-6.5l3.9,0.1&#10;&#9;&#9;&#9;c2.6,0.4,4.2,6.9,4.2,6.9s0.1,34.4,34.6,34.5c31.6,0.1,35.7-26.3,38-37.5C833.6,274.7,836.9,277.4,837,270.7z M731.8,304&#10;&#9;&#9;&#9;c-8.1,11.2-38,16-47.2,0.1c-8.6-15-5.9-35.1-2.3-37.3c25.7-15.1,56.2,1.3,58.1,5.3C742.4,276.2,740.2,292.6,731.8,304z&#10;&#9;&#9;&#9; M816.7,309.2c-11.5,15.1-40.5,8.1-46.9-3.7c-6.5-12-6.2-28.5-3.7-32.3c2.5-3.8,35.4-17.8,58.6-0.8&#10;&#9;&#9;&#9;C828,274.7,827.6,294.9,816.7,309.2z"/>
	</g>
<path d="M 591.0511474609375 167.86976623535156" style="fill: rgb(52, 94, 12); fill-opacity: 1; stroke: rgb(0, 0, 0); stroke-opacity: 1; stroke-width: 0; paint-order: fill;"/></g>
</svg>